<svg xmlns="http://www.w3.org/2000/svg" viewBox="0 0 24 24" fill="#2496ED"><path d="M13.983 11.078h2.119a.186.186 0 0 0 .186-.185V9.006a.186.186 0 0 0-.186-.186h-2.119a.185.185 0 0 0-.185.185v1.888c0 .102.083.185.185.185m-2.954-5.43h2.118a.186.186 0 0 0 .186-.186V3.574a.186.186 0 0 0-.186-.185h-2.118a.185.185 0 0 0-.185.185v1.888c0 .102.082.185.185.185m0 2.716h2.118a.187.187 0 0 0 .186-.186V6.29a.186.186 0 0 0-.186-.185h-2.118a.185.185 0 0 0-.185.185v1.887c0 .102.082.185.185.186m-2.954 0h2.118a.186.186 0 0 0 .185-.186V6.29a.185.185 0 0 0-.185-.185H8.075a.185.185 0 0 0-.185.185v1.887c0 .102.083.185.185.186m-2.257 5.655a.18.18 0 0 0-.324.098c-.102.444-.38 1.62-.427 1.78a.094.094 0 0 0 .108.117l2.234-.323.001-.001.001-.001.001 0 .001-.001.001-.002.001 0 .001-.001.001-.001.001-.001.001-.001.001-.001.001-.001.001-.001.001-.001.001-.002.001-.001c.163-.163.232-.383.186-.596l-.004-.019-.004-.019-.004-.019-.004-.019-.004-.019-.004-.019-.004-.019-.004-.019-.004-.019-.004-.019a.18.18 0 0 0-.18-.144h-.428a.185.185 0 0 1-.185-.185V9.006a.185.185 0 0 0-.185-.186H5.902a.186.186 0 0 0-.186.186V11.078ZM24 12c0 6.627-5.373 12-12 12S0 18.627 0 12 5.373 0 12 0s12 5.373 12 12zm-7.4-7.4H7.4a.185.185 0 0 0-.185.185v14.43c0 .102.083.185.185.185h9.2a.186.186 0 0 0 .186-.185V4.785a.186.186 0 0 0-.186-.185z"/></svg>
