<svg xmlns="http://www.w3.org/2000/svg" viewBox="0 0 24 24" fill="#47A248"><path d="M17.193 9.555c-1.264-5.58-4.252-7.243-4.252-7.243c-.452-.9-1.252-1.313-1.252-1.313c-1.26-.814-2.786-.813-2.786-.813c-.714 0-.916.1-.916.1c-1.547.234-2.396 1.244-2.396 1.244C3.584 3.61 3.71 6.297 3.71 6.297c0 3.247 1.76 4.91 3.526 5.94c1.107.644 2.31.875 3.41.897c.096.01.19.01.286 0c1.1-.022 2.303-.253 3.41-.898c1.766-1.03 3.526-2.693 3.526-5.939c0 0 .032-.832-.675-1.742m.067 3.352c-.18.98-.618 1.849-1.263 2.533c-.62.659-1.405 1.054-2.178 1.054c-.197 0-.393-.024-.582-.073c-.76-.197-1.365-.814-1.547-1.573c-.109-.454-.077-.932.09-1.38c.191-.512.524-.94.943-1.222c.419-.282.909-.406 1.402-.36c.515.049.994.284 1.33.65c.342.371.526.87.497 1.371m-5.453 6.022c-.19-.068-.38-.145-.564-.228c-1.005-.46-1.73-1.26-2.032-2.218c-.067-.215-.1-.437-.1-.659c0-.22.033-.44.1-.651c.3-.958 1.025-1.757 2.029-2.216c.184-.083.375-.16.565-.228c-.49.358-.912.816-1.225 1.337c-.33.55-.497 1.18-.488 1.811c-.009.632.158 1.262.488 1.811c.313.523.737.98 1.227 1.34m9.432-3.205c-.092.363-.252.714-.473 1.025c-.217.303-.49.558-.8.754c-.31.198-.656.329-1.015.385c-.362.058-.733.04-1.087-.054c-.327-.086-.634-.236-.9-.441c-.263-.202-.482-.46-.64-.754c.316.193.68.315 1.055.355c.375.04.757-.006 1.111-.135c.357-.13.678-.34.937-.614c.263-.276.454-.613.557-.977c.106-.367.114-.754.024-1.125c-.09-.37-.278-.706-.543-.979c-.268-.275-.603-.473-.97-.573c-.37-.1-.76-.1-1.13 0c-.375.101-.71.299-.978.573c-.265.273-.453.608-.543.979c.172-.234.39-.432.644-.578c.256-.145.54-.228.833-.24c.289-.012.58.05.844.18c.267.13.503.323.688.564c.188.24.32.524.387.824c.068.301.07.614.006.916z"/></svg>
