<svg xmlns="http://www.w3.org/2000/svg" viewBox="0 0 24 24" fill="#764ABC"><path d="M16.634 16.504c.87-.075 1.543-.84 1.5-1.754-.047-.914-.796-1.648-1.709-1.648h-.061a1.71 1.71 0 0 0-1.648 1.769c.03.479.226.869.494 1.153-1.048 2.038-2.621 3.536-5.005 4.795-1.603.838-3.296 1.154-4.944.93-1.378-.195-2.456-.81-3.116-1.799-.988-1.499-1.078-3.116-.255-4.734.6-1.17 1.499-2.023 2.099-2.443a9.96 9.96 0 0 1-.42-1.543C1.934 12.586 1 14.09 1 15.968c0 3.447 2.727 5.553 4.704 6.302 2.999 1.139 6.467.644 8.999-1.049zm-6.32-8.404c1.484-1.829 3.102-2.637 4.813-2.637c1.229 0 2.337.404 2.968.688l.031-.044c.036-.067.044-.091.044-.107a9.44 9.44 0 0 0-.405-.974A5.1 5.1 0 0 0 16 4.104c-1.453-.434-3.025-.046-4.264.984A7.955 7.955 0 0 1 9.89 6.47A11.034 11.034 0 0 1 9.15 5.38c-.33-.48-.554-.883-.72-1.213a2.46 2.46 0 0 0-.045-.091c-.015-.033-.027-.062-.039-.09a1.698 1.698 0 0 0-.63-.646A1.706 1.706 0 0 0 6.25 3.1a1.709 1.709 0 0 0-1.709 1.708c0 .945.765 1.71 1.709 1.71a1.73 1.73 0 0 0 .66-.135c.495.78 1.005 1.575 1.547 2.367zm11.547 1.768c-1.289-1.518-3.206-2.443-5.543-2.443H16.1c-.15-.33-.48-.569-.885-.569h-.03c-.54 0-.96.42-.96.96c0 .54.42.96.96.96c.375 0 .689-.225.855-.525h.255c1.319 0 2.563.383 3.686 1.139c.855.569 1.469 1.304 1.814 2.188c.285.704.3 1.394.045 1.963c-.39.884-1.244 1.364-2.278 1.364c-1.319 0-2.053-.375-2.577-.645c-.345-.18-.614-.315-.884-.315c-.42 0-.659.27-.659.645c0 .375.27.659.644.659c.225 0 .404-.15.585-.255c.54-.27 1.438-.704 2.907-.704c1.694 0 2.952-.899 3.446-2.443c.375-1.154.135-2.503-.764-3.717z"/></svg>
